<?xml version="1.0" encoding="UTF-8" standalone="no" ?>
<!DOCTYPE svg PUBLIC "-//W3C//DTD SVG 1.1//EN" "http://www.w3.org/Graphics/SVG/1.1/DTD/svg11.dtd">
<svg xmlns="http://www.w3.org/2000/svg" xmlns:xlink="http://www.w3.org/1999/xlink" version="1.1" width="502.7892578125" height="163.982" xml:space="preserve">
<desc>Created with Fabric.js 1.6.0-rc.1</desc>
<defs></defs>
<g style="stroke: none; stroke-width: 1; stroke-dasharray: none; stroke-linecap: butt; stroke-linejoin: miter; stroke-miterlimit: 10; fill: none; fill-rule: nonzero; opacity: 1;" transform="translate(10 10) scale(0.28 0.3)" >
  <polygon points="128,407.25 0,478.94 0,104.74 128,33.06 " style="stroke: none; stroke-width: 1; stroke-dasharray: none; stroke-linecap: butt; stroke-linejoin: miter; stroke-miterlimit: 10; fill: #F2F2F2; fill-rule: nonzero; opacity: 1;" transform="  matrix(1 0 0 1 0 0) "/>
  <polygon points="256,478.94 128,407.25 128,33.06 256,104.74 " style="stroke: none; stroke-width: 1; stroke-dasharray: none; stroke-linecap: butt; stroke-linejoin: miter; stroke-miterlimit: 10; fill: #D9D8D7; fill-rule: nonzero; opacity: 1;" transform="  matrix(1 0 0 1 0 0) "/>
  <polygon points="384,407.25 256,478.94 256,104.74 384,33.06 " style="stroke: none; stroke-width: 1; stroke-dasharray: none; stroke-linecap: butt; stroke-linejoin: miter; stroke-miterlimit: 10; fill: #F2F2F2; fill-rule: nonzero; opacity: 1;" transform="  matrix(1 0 0 1 0 0) "/>
  <polygon points="512,478.94 384,407.25 384,33.06 512,104.74 " style="stroke: none; stroke-width: 1; stroke-dasharray: none; stroke-linecap: butt; stroke-linejoin: miter; stroke-miterlimit: 10; fill: #D9D8D7; fill-rule: nonzero; opacity: 1;" transform="  matrix(1 0 0 1 0 0) "/>
  <path d="M 262.003 393.67 l -0.399 -8.94 c 3.802 -0.177 7.611 -0.525 11.366 -1.037 l 1.216 8.881 C 270.17 393.12 266.074 393.494 262.003 393.67 z M 249.774 393.663 c -4.083 -0.182 -8.182 -0.566 -12.188 -1.124 l 1.229 -8.878 c 3.743 0.52 7.572 0.876 11.361 1.06 L 249.774 393.663 z M 286.218 390.348 l -2.038 -8.73 c 3.704 -0.852 7.396 -1.912 10.98 -3.103 l 2.849 8.497 C 294.149 388.305 290.181 389.423 286.218 390.348 z M 225.546 390.301 c -3.948 -0.929 -7.903 -2.063 -11.773 -3.361 l 2.857 -8.489 c 3.597 1.201 7.291 2.26 10.972 3.126 L 225.546 390.301 z M 309.427 382.593 l -3.612 -8.195 c 3.471 -1.528 6.889 -3.251 10.204 -5.082 l 4.37 7.821 C 316.844 379.112 313.144 380.95 309.427 382.593 z M 202.368 382.504 c -3.709 -1.641 -7.398 -3.487 -10.947 -5.478 l 4.37 -7.818 c 3.31 1.853 6.746 3.579 10.204 5.112 L 202.368 382.504 z M 330.793 370.684 l -5.071 -7.378 c 3.144 -2.158 6.203 -4.452 9.121 -6.879 l 5.714 6.892 C 337.439 365.912 334.139 368.396 330.793 370.684 z M 181.02 370.564 c -3.346 -2.304 -6.628 -4.78 -9.756 -7.391 l 5.737 -6.876 c 2.913 2.422 5.972 4.741 9.093 6.881 L 181.02 370.564 z M 349.601 355.076 l -6.321 -6.336 c 2.683 -2.693 5.274 -5.53 7.693 -8.425 l 6.886 5.724 C 355.277 349.149 352.486 352.193 349.601 355.076 z M 162.232 354.92 c -2.875 -2.88 -5.647 -5.924 -8.241 -9.047 l 6.902 -5.724 c 2.417 2.916 5.002 5.757 7.68 8.445 L 162.232 354.92 z M 365.251 336.283 l -7.383 -5.076 c 2.156 -3.141 4.183 -6.397 6.019 -9.692 l 7.823 4.37 C 369.748 329.417 367.565 332.916 365.251 336.283 z M 146.614 336.096 c -2.296 -3.356 -4.46 -6.863 -6.441 -10.409 l 7.831 -4.349 c 1.838 3.297 3.863 6.572 6.003 9.697 L 146.614 336.096 z M 377.18 314.935 l -8.192 -3.628 c 1.541 -3.466 2.929 -7.043 4.127 -10.639 l 8.497 2.854 C 380.324 307.383 378.829 311.22 377.18 314.935 z M 134.725 314.73 c -1.646 -3.72 -3.128 -7.562 -4.416 -11.423 l 8.494 -2.836 c 1.203 3.594 2.591 7.181 4.116 10.639 L 134.725 314.73 z M 384.97 291.747 l -8.732 -2.048 c 0.868 -3.681 1.577 -7.452 2.104 -11.223 l 8.868 1.242 C 386.644 283.754 385.894 287.802 384.97 291.747 z M 126.973 291.524 c -0.919 -3.965 -1.672 -8.01 -2.217 -12.035 l 8.876 -1.219 c 0.515 3.753 1.206 7.524 2.068 11.223 L 126.973 291.524 z" style="stroke: none; stroke-width: 1; stroke-dasharray: none; stroke-linecap: butt; stroke-linejoin: miter; stroke-miterlimit: 10; fill: #242D3C; fill-rule: nonzero; opacity: 1;" transform=" matrix(1 0 0 1 0 0) " stroke-linecap="round" />
  <ellipse cx="256.022" cy="261.323" rx="59.692" ry="26.883" style="stroke: none; stroke-width: 1; stroke-dasharray: none; stroke-linecap: butt; stroke-linejoin: miter; stroke-miterlimit: 10; fill: #242D3C; fill-rule: nonzero; opacity: 1;" transform=" matrix(1 0 0 1 0 0) "/>
  <path d="M 256.015 33.064 c -46.331 0 -83.919 37.601 -83.919 83.904 c 0 19.313 7.037 36.621 17.38 51.133 c 66.54 93.228 66.54 93.228 66.54 93.228 s 0 0 66.522 -93.235 c 10.353 -14.51 17.364 -31.867 17.364 -51.126 C 339.901 70.662 302.364 33.064 256.015 33.064 z" style="stroke: none; stroke-width: 1; stroke-dasharray: none; stroke-linecap: butt; stroke-linejoin: miter; stroke-miterlimit: 10; fill: #f22222; fill-rule: nonzero; opacity: 1;" transform=" matrix(1 0 0 1 0 0) " stroke-linecap="round" />
  <path d="M 315.707 116.968 c 0 33.024 -26.693 59.717 -59.692 59.717 c -32.96 0 -59.735 -26.693 -59.735 -59.717 c 0 -32.96 26.778 -59.717 59.735 -59.717 C 289.014 57.251 315.707 84.008 315.707 116.968 z" style="stroke: none; stroke-width: 1; stroke-dasharray: none; stroke-linecap: butt; stroke-linejoin: miter; stroke-miterlimit: 10; fill: #FFFFFF; fill-rule: nonzero; opacity: 1;" transform=" matrix(1 0 0 1 0 0) " stroke-linecap="round" />
  <path d="M 256.005 160.669 c -24.097 0 -43.72 -19.599 -43.72 -43.697 s 19.622 -43.704 43.72 -43.704 c 24.095 0 43.694 19.607 43.694 43.704 S 280.1 160.669 256.005 160.669 z M 256.005 78.836 c -21.033 0 -38.152 17.101 -38.152 38.134 c 0 21.028 17.119 38.136 38.152 38.136 c 21.038 0 38.144 -17.108 38.144 -38.136 C 294.149 95.937 277.046 78.836 256.005 78.836 z" style="stroke: none; stroke-width: 1; stroke-dasharray: none; stroke-linecap: butt; stroke-linejoin: miter; stroke-miterlimit: 10; fill: #242D3C; fill-rule: nonzero; opacity: 1;" transform=" matrix(1 0 0 1 0 0) " stroke-linecap="round" />
  <path d="M 256.005 160.669 c -13.043 0 -23.265 -19.19 -23.265 -43.697 c 0 -24.512 10.222 -43.704 23.265 -43.704 v 5.571 c -9.579 0 -17.692 17.464 -17.692 38.134 s 8.11 38.136 17.692 38.136 V 160.669 z" style="stroke: none; stroke-width: 1; stroke-dasharray: none; stroke-linecap: butt; stroke-linejoin: miter; stroke-miterlimit: 10; fill: #242D3C; fill-rule: nonzero; opacity: 1;" transform=" matrix(1 0 0 1 0 0) " stroke-linecap="round" />
  <path d="M 256.005 160.669 v -5.56 c 9.582 0 17.669 -17.467 17.669 -38.136 s -8.087 -38.134 -17.669 -38.134 v -5.571 c 13.03 0 23.24 19.192 23.24 43.704 C 279.245 141.48 269.038 160.669 256.005 160.669 z" style="stroke: none; stroke-width: 1; stroke-dasharray: none; stroke-linecap: butt; stroke-linejoin: miter; stroke-miterlimit: 10; fill: #242D3C; fill-rule: nonzero; opacity: 1;" transform=" matrix(1 0 0 1 0 0) " stroke-linecap="round" />
  <rect x="253.21" y="76.05" rx="0" ry="0" width="5.57" height="81.83" style="stroke: none; stroke-width: 1; stroke-dasharray: none; stroke-linecap: butt; stroke-linejoin: miter; stroke-miterlimit: 10; fill: #242D3C; fill-rule: nonzero; opacity: 1;" transform=" matrix(1 0 0 1 0 0) "/>
  <rect x="215.09" y="114.19" rx="0" ry="0" width="81.84" height="5.57" style="stroke: none; stroke-width: 1; stroke-dasharray: none; stroke-linecap: butt; stroke-linejoin: miter; stroke-miterlimit: 10; fill: #242D3C; fill-rule: nonzero; opacity: 1;" transform=" matrix(1 0 0 1 0 0) "/>
  <path d="M 256.005 99.301 c -11.236 0 -22.28 -1.769 -32.819 -5.248 l 1.746 -5.289 c 19.95 6.589 42.199 6.589 62.134 0 l 1.741 5.289 C 278.277 97.53 267.246 99.301 256.005 99.301 z" style="stroke: none; stroke-width: 1; stroke-dasharray: none; stroke-linecap: butt; stroke-linejoin: miter; stroke-miterlimit: 10; fill: #242D3C; fill-rule: nonzero; opacity: 1;" transform=" matrix(1 0 0 1 0 0) " stroke-linecap="round" />
  <path d="M 224.929 145.179 l -1.736 -5.294 c 21.158 -6.953 44.449 -6.956 65.613 0 l -1.738 5.294 C 267.036 138.584 244.969 138.592 224.929 145.179 z" style="stroke: none; stroke-width: 1; stroke-dasharray: none; stroke-linecap: butt; stroke-linejoin: miter; stroke-miterlimit: 10; fill: #242D3C; fill-rule: nonzero; opacity: 1;" transform=" matrix(1 0 0 1 0 0) " stroke-linecap="round" />
  <path d="M 384 163.91 c -19.766 0 -35.825 16.044 -35.825 35.804 c 0 8.251 3.005 15.629 7.427 21.827 C 384 261.329 384 261.329 384 261.329 s 0 0 28.401 -39.79 c 4.413 -6.195 7.406 -13.604 7.406 -21.821 C 419.804 179.954 403.786 163.91 384 163.91 z" style="stroke: none; stroke-width: 1; stroke-dasharray: none; stroke-linecap: butt; stroke-linejoin: miter; stroke-miterlimit: 10; fill: #f22222; fill-rule: nonzero; opacity: 1;" transform=" matrix(1 0 0 1 0 0) " stroke-linecap="round" />
  <path d="M 397.243 199.717 c 0 7.327 -5.924 13.235 -13.243 13.235 c -7.314 0 -13.235 -5.908 -13.235 -13.235 c 0 -7.306 5.921 -13.24 13.235 -13.24 C 391.316 186.477 397.243 192.411 397.243 199.717 z" style="stroke: none; stroke-width: 1; stroke-dasharray: none; stroke-linecap: butt; stroke-linejoin: miter; stroke-miterlimit: 10; fill: #FFFFFF; fill-rule: nonzero; opacity: 1;" transform=" matrix(1 0 0 1 0 0) " stroke-linecap="round" />
  <path d="M 128 163.91 c -19.766 0 -35.817 16.044 -35.817 35.804 c 0 8.251 3.005 15.629 7.421 21.827 C 128 261.329 128 261.329 128 261.329 s 0 0 28.401 -39.79 c 4.406 -6.195 7.398 -13.604 7.398 -21.821 C 163.799 179.954 147.779 163.91 128 163.91 z" style="stroke: none; stroke-width: 1; stroke-dasharray: none; stroke-linecap: butt; stroke-linejoin: miter; stroke-miterlimit: 10; fill: #f22222; fill-rule: nonzero; opacity: 1;" transform=" matrix(1 0 0 1 0 0) " stroke-linecap="round" />
  <path d="M 141.245 199.717 c 0 7.327 -5.934 13.235 -13.245 13.235 c -7.304 0 -13.243 -5.908 -13.243 -13.235 c 0 -7.306 5.939 -13.24 13.243 -13.24 C 135.309 186.477 141.245 192.411 141.245 199.717 z" style="stroke: none; stroke-width: 1; stroke-dasharray: none; stroke-linecap: butt; stroke-linejoin: miter; stroke-miterlimit: 10; fill: #FFFFFF; fill-rule: nonzero; opacity: 1;" transform=" matrix(1 0 0 1 0 0) " stroke-linecap="round" />
</g>
<g style="stroke: none; stroke-width: 1; stroke-dasharray: none; stroke-linecap: butt; stroke-linejoin: miter; stroke-miterlimit: 10; fill: none; fill-rule: nonzero; opacity: 1;" transform="translate(67 98) scale(0.05 0.05)" >
  <path d="M 438.406 406.618 H 169.445 v -32.275 h 268.961 c 4.306 0 8.358 -1.68 11.408 -4.729 c 3.05 -3.049 4.729 -7.103 4.729 -11.408 c 0 -8.898 -7.239 -16.138 -16.138 -16.138 H 169.445 L 113.564 97.306 L 66.111 51.59 H 8.069 V 19.315 h 71.059 l 64.22 61.868 l 52.803 228.609 h 242.254 c 26.695 0 48.413 21.718 48.413 48.413 c 0 12.927 -5.037 25.083 -14.184 34.229 C 463.489 401.581 451.333 406.618 438.406 406.618 z" style="stroke: none; stroke-width: 1; stroke-dasharray: none; stroke-linecap: butt; stroke-linejoin: miter; stroke-miterlimit: 10; fill: #E0E0E0; fill-rule: nonzero; opacity: 1;" transform=" matrix(1 0 0 1 0 0) " stroke-linecap="round" />
  <circle cx="223.235" cy="460.405" r="32.275" style="stroke: none; stroke-width: 1; stroke-dasharray: none; stroke-linecap: butt; stroke-linejoin: miter; stroke-miterlimit: 10; fill: #898890; fill-rule: nonzero; opacity: 1;" transform="  matrix(1 0 0 1 0 0) "/>
  <circle cx="427.645" cy="460.405" r="32.275" style="stroke: none; stroke-width: 1; stroke-dasharray: none; stroke-linecap: butt; stroke-linejoin: miter; stroke-miterlimit: 10; fill: #898890; fill-rule: nonzero; opacity: 1;" transform="  matrix(1 0 0 1 0 0) "/>
  <polygon points="502.96,89.24 499.47,121.52 152.26,121.52 145.25,89.24 " style="stroke: none; stroke-width: 1; stroke-dasharray: none; stroke-linecap: butt; stroke-linejoin: miter; stroke-miterlimit: 10; fill: #E0E0E0; fill-rule: nonzero; opacity: 1;" transform="  matrix(1 0 0 1 0 0) "/>
  <polygon points="190.96,89.24 190.96,121.52 152.26,121.52 145.25,89.24 " style="stroke: none; stroke-width: 1; stroke-dasharray: none; stroke-linecap: butt; stroke-linejoin: miter; stroke-miterlimit: 10; fill: #BDBDBD; fill-rule: nonzero; opacity: 1;" transform="  matrix(1 0 0 1 0 0) "/>
  <polygon points="66.11,51.59 8.07,51.59 8.07,19.32 79.13,19.32 " style="stroke: none; stroke-width: 1; stroke-dasharray: none; stroke-linecap: butt; stroke-linejoin: miter; stroke-miterlimit: 10; fill: #ED593B; fill-rule: nonzero; opacity: 1;" transform="  matrix(1 0 0 1 0 0) "/>
  <path d="M 506.467 129.589 h 0.247 l 4.254 -39.38 L 512 81.176 h -0.057 H 151.637 l -0.98 -4.156 L 82.383 11.246 H 0 v 48.413 h 62.856 l 43.376 41.789 l 56.779 248.689 h 275.395 c 4.45 0 8.069 3.619 8.069 8.069 c 0 2.151 -0.84 4.176 -2.367 5.702 c -1.526 1.527 -3.551 2.367 -5.702 2.367 h -277.03 v 48.413 h 53.792 v 6.191 c -18.393 3.748 -32.275 20.048 -32.275 39.532 c 0 22.246 18.098 40.344 40.344 40.344 s 40.344 -18.098 40.344 -40.344 c 0 -19.483 -13.883 -35.784 -32.275 -39.532 v -6.191 h 188.272 v 6.191 c -18.393 3.748 -32.275 20.048 -32.275 39.532 c 0 22.246 18.098 40.344 40.344 40.344 s 40.344 -18.098 40.344 -40.344 c 0 -19.483 -13.883 -35.784 -32.275 -39.532 v -6.191 h 2.69 c 15.083 0 29.266 -5.876 39.934 -16.546 c 10.671 -10.669 16.548 -24.853 16.548 -39.935 c 0 -31.143 -25.338 -56.482 -56.482 -56.482 H 202.569 l -3.728 -16.138 h 289.797 L 506.467 129.589 z M 247.444 460.41 c 0 13.347 -10.86 24.206 -24.206 24.206 s -24.206 -10.86 -24.206 -24.206 c 0 -10.519 6.747 -19.488 16.138 -22.819 v 22.819 h 16.138 v -22.819 C 240.697 440.922 247.444 449.892 247.444 460.41 z M 451.854 460.41 c 0 13.347 -10.86 24.206 -24.206 24.206 c -13.347 0 -24.206 -10.86 -24.206 -24.206 c 0 -10.519 6.747 -19.488 16.138 -22.819 v 22.819 h 16.138 v -22.819 C 445.107 440.922 451.854 449.892 451.854 460.41 z M 173.993 178.001 h 41.176 v 37.654 H 182.69 L 173.993 178.001 z M 419.579 129.589 v 32.275 h -26.896 v -32.275 H 419.579 z M 376.545 161.864 H 338.89 v -32.275 h 37.654 V 161.864 z M 338.89 178.001 h 37.654 v 37.654 H 338.89 V 178.001 z M 322.753 215.656 h -37.654 v -37.654 h 37.654 V 215.656 z M 322.753 161.864 h -37.654 v -32.275 h 37.654 V 161.864 z M 268.961 161.864 h -37.655 v -32.275 h 37.655 V 161.864 z M 215.169 161.864 h -44.904 l -7.455 -32.275 h 52.358 V 161.864 z M 231.306 178.001 h 37.655 v 37.654 h -37.655 V 178.001 z M 268.961 231.794 v 37.654 h -37.655 v -37.654 H 268.961 z M 285.098 231.794 h 37.654 v 37.654 h -37.654 V 231.794 z M 338.89 231.794 h 37.654 v 37.654 H 338.89 V 231.794 z M 392.683 231.794 h 26.896 v 37.654 h -26.896 V 231.794 z M 392.683 215.656 v -37.654 h 26.896 v 37.654 H 392.683 z M 435.716 178.001 h 48.975 l -4.303 37.654 h -44.671 V 178.001 z M 486.536 161.864 h -50.82 v -32.275 h 54.508 L 486.536 161.864 z M 438.406 317.861 c 22.246 0 40.344 18.098 40.344 40.344 c 0 10.772 -4.197 20.903 -11.82 28.525 c -7.621 7.622 -17.751 11.819 -28.524 11.819 H 177.514 v -16.138 h 260.892 c 6.462 0 12.539 -2.52 17.113 -7.093 c 4.573 -4.574 7.093 -10.652 7.093 -17.113 c 0 -13.347 -10.86 -24.206 -24.206 -24.206 H 175.879 L 121.429 95.51 l -0.535 -2.346 L 69.366 43.521 H 16.138 V 27.383 h 59.735 l 60.168 57.963 l 2.821 11.967 h 6.388 h 348.663 l -1.844 16.138 H 142.521 l 47.214 204.41 H 438.406 z M 186.418 231.794 h 28.751 v 37.654 h -20.054 L 186.418 231.794 z M 435.716 269.448 v -37.654 h 42.828 l -4.303 37.654 H 435.716 z" style="stroke: none; stroke-width: 1; stroke-dasharray: none; stroke-linecap: butt; stroke-linejoin: miter; stroke-miterlimit: 10; fill: #050000; fill-rule: nonzero; opacity: 1;" transform=" matrix(1 0 0 1 0 0) " stroke-linecap="round" />
</g>
  <g transform="translate(224.39 66.33) scale(1.5 1.21)">
   <text font-family="ADAMCG PRO" font-size="40" font-weight="normal" style="stroke: none; stroke-width: 1; stroke-dasharray: none; stroke-linecap: butt; stroke-linejoin: miter; stroke-miterlimit: 10; fill: #ff0000; fill-rule: nonzero; opacity: 1;" ><tspan x="-44.42" y="8.98" style="stroke: none; stroke-width: 0; stroke-dasharray: none; stroke-linecap: butt; stroke-linejoin: miter; stroke-miterlimit: 4; fill: #ff0000; fill-rule: ; opacity: 1;">E</tspan><tspan x="-21.16" y="8.98" style="stroke: none; stroke-width: 0; stroke-dasharray: none; stroke-linecap: butt; stroke-linejoin: miter; stroke-miterlimit: 4; fill: #ff0000; fill-rule: ; opacity: 1;">s</tspan><tspan x="-0.05" y="8.98" style="stroke: none; stroke-width: 0; stroke-dasharray: none; stroke-linecap: butt; stroke-linejoin: miter; stroke-miterlimit: 4; fill: #ff0000; fill-rule: ; opacity: 1;">s</tspan><tspan x="21.06" y="8.98" style="stroke: none; stroke-width: 0; stroke-dasharray: none; stroke-linecap: butt; stroke-linejoin: miter; stroke-miterlimit: 4; fill: #ff0000; fill-rule: ; opacity: 1;">t</tspan></text>
 </g>
  <g transform="translate(327.31 119.71) scale(0.83 0.62)">
   <text font-family="ADAMCG PRO" font-size="40" font-weight="normal" style="stroke: none; stroke-width: 1; stroke-dasharray: none; stroke-linecap: butt; stroke-linejoin: miter; stroke-miterlimit: 10; fill: #f7f7f7; fill-rule: nonzero; opacity: 1;" ><tspan x="-199.87" y="-17.23" style="stroke: none; stroke-width: 0; stroke-dasharray: none; stroke-linecap: butt; stroke-linejoin: miter; stroke-miterlimit: 4; fill: #f7f7f7; fill-rule: ; opacity: 1;">E</tspan><tspan x="-176.61" y="-17.23" style="stroke: none; stroke-width: 0; stroke-dasharray: none; stroke-linecap: butt; stroke-linejoin: miter; stroke-miterlimit: 4; fill: #f7f7f7; fill-rule: ; opacity: 1;">f</tspan><tspan x="-155.3" y="-17.23" style="stroke: none; stroke-width: 0; stroke-dasharray: none; stroke-linecap: butt; stroke-linejoin: miter; stroke-miterlimit: 4; fill: #f7f7f7; fill-rule: ; opacity: 1;">f</tspan><tspan x="-133.99" y="-17.23" style="stroke: none; stroke-width: 0; stroke-dasharray: none; stroke-linecap: butt; stroke-linejoin: miter; stroke-miterlimit: 4; fill: #f7f7f7; fill-rule: ; opacity: 1;">i</tspan><tspan x="-123.21" y="-17.23" style="stroke: none; stroke-width: 0; stroke-dasharray: none; stroke-linecap: butt; stroke-linejoin: miter; stroke-miterlimit: 4; fill: #f7f7f7; fill-rule: ; opacity: 1;">c</tspan><tspan x="-96.14" y="-17.23" style="stroke: none; stroke-width: 0; stroke-dasharray: none; stroke-linecap: butt; stroke-linejoin: miter; stroke-miterlimit: 4; fill: #f7f7f7; fill-rule: ; opacity: 1;">e</tspan><tspan x="-72.88" y="-17.23" style="stroke: none; stroke-width: 0; stroke-dasharray: none; stroke-linecap: butt; stroke-linejoin: miter; stroke-miterlimit: 4; fill: #f7f7f7; fill-rule: ; opacity: 1;">n</tspan><tspan x="-43.37" y="-17.23" style="stroke: none; stroke-width: 0; stroke-dasharray: none; stroke-linecap: butt; stroke-linejoin: miter; stroke-miterlimit: 4; fill: #f7f7f7; fill-rule: ; opacity: 1;">t</tspan><tspan x="-20.01" y="-17.23" style="stroke: none; stroke-width: 0; stroke-dasharray: none; stroke-linecap: butt; stroke-linejoin: miter; stroke-miterlimit: 4; fill: #f7f7f7; fill-rule: ; opacity: 1;"> </tspan><tspan x="-8.02" y="-17.23" style="stroke: none; stroke-width: 0; stroke-dasharray: none; stroke-linecap: butt; stroke-linejoin: miter; stroke-miterlimit: 4; fill: #f7f7f7; fill-rule: ; opacity: 1;">s</tspan><tspan x="13.1" y="-17.23" style="stroke: none; stroke-width: 0; stroke-dasharray: none; stroke-linecap: butt; stroke-linejoin: miter; stroke-miterlimit: 4; fill: #f7f7f7; fill-rule: ; opacity: 1;">h</tspan><tspan x="40.4" y="-17.23" style="stroke: none; stroke-width: 0; stroke-dasharray: none; stroke-linecap: butt; stroke-linejoin: miter; stroke-miterlimit: 4; fill: #f7f7f7; fill-rule: ; opacity: 1;">o</tspan><tspan x="74.35" y="-17.23" style="stroke: none; stroke-width: 0; stroke-dasharray: none; stroke-linecap: butt; stroke-linejoin: miter; stroke-miterlimit: 4; fill: #f7f7f7; fill-rule: ; opacity: 1;">p</tspan><tspan x="96.77" y="-17.23" style="stroke: none; stroke-width: 0; stroke-dasharray: none; stroke-linecap: butt; stroke-linejoin: miter; stroke-miterlimit: 4; fill: #f7f7f7; fill-rule: ; opacity: 1;">p</tspan><tspan x="119.19" y="-17.23" style="stroke: none; stroke-width: 0; stroke-dasharray: none; stroke-linecap: butt; stroke-linejoin: miter; stroke-miterlimit: 4; fill: #f7f7f7; fill-rule: ; opacity: 1;">i</tspan><tspan x="129.97" y="-17.23" style="stroke: none; stroke-width: 0; stroke-dasharray: none; stroke-linecap: butt; stroke-linejoin: miter; stroke-miterlimit: 4; fill: #f7f7f7; fill-rule: ; opacity: 1;">n</tspan><tspan x="159.48" y="-17.23" style="stroke: none; stroke-width: 0; stroke-dasharray: none; stroke-linecap: butt; stroke-linejoin: miter; stroke-miterlimit: 4; fill: #f7f7f7; fill-rule: ; opacity: 1;">g</tspan><tspan x="187.88" y="-17.23" style="stroke: none; stroke-width: 0; stroke-dasharray: none; stroke-linecap: butt; stroke-linejoin: miter; stroke-miterlimit: 4; fill: #f7f7f7; fill-rule: ; opacity: 1;"> </tspan><tspan x="-199.87" y="35.2" style="stroke: none; stroke-width: 0; stroke-dasharray: none; stroke-linecap: butt; stroke-linejoin: miter; stroke-miterlimit: 4; fill: #f7f7f7; fill-rule: ; opacity: 1;">I</tspan><tspan x="-189.09" y="35.2" style="stroke: none; stroke-width: 0; stroke-dasharray: none; stroke-linecap: butt; stroke-linejoin: miter; stroke-miterlimit: 4; fill: #f7f7f7; fill-rule: ; opacity: 1;">n</tspan><tspan x="-159.58" y="35.2" style="stroke: none; stroke-width: 0; stroke-dasharray: none; stroke-linecap: butt; stroke-linejoin: miter; stroke-miterlimit: 4; fill: #f7f7f7; fill-rule: ; opacity: 1;"> </tspan><tspan x="-147.59" y="35.2" style="stroke: none; stroke-width: 0; stroke-dasharray: none; stroke-linecap: butt; stroke-linejoin: miter; stroke-miterlimit: 4; fill: #f7f7f7; fill-rule: ; opacity: 1;">s</tspan><tspan x="-126.47" y="35.2" style="stroke: none; stroke-width: 0; stroke-dasharray: none; stroke-linecap: butt; stroke-linejoin: miter; stroke-miterlimit: 4; fill: #f7f7f7; fill-rule: ; opacity: 1;">h</tspan><tspan x="-99.17" y="35.2" style="stroke: none; stroke-width: 0; stroke-dasharray: none; stroke-linecap: butt; stroke-linejoin: miter; stroke-miterlimit: 4; fill: #f7f7f7; fill-rule: ; opacity: 1;">o</tspan><tspan x="-65.22" y="35.2" style="stroke: none; stroke-width: 0; stroke-dasharray: none; stroke-linecap: butt; stroke-linejoin: miter; stroke-miterlimit: 4; fill: #f7f7f7; fill-rule: ; opacity: 1;">r</tspan><tspan x="-39.6" y="35.2" style="stroke: none; stroke-width: 0; stroke-dasharray: none; stroke-linecap: butt; stroke-linejoin: miter; stroke-miterlimit: 4; fill: #f7f7f7; fill-rule: ; opacity: 1;">t</tspan><tspan x="-16.24" y="35.2" style="stroke: none; stroke-width: 0; stroke-dasharray: none; stroke-linecap: butt; stroke-linejoin: miter; stroke-miterlimit: 4; fill: #f7f7f7; fill-rule: ; opacity: 1;"> </tspan><tspan x="-4.25" y="35.2" style="stroke: none; stroke-width: 0; stroke-dasharray: none; stroke-linecap: butt; stroke-linejoin: miter; stroke-miterlimit: 4; fill: #f7f7f7; fill-rule: ; opacity: 1;">t</tspan><tspan x="19.11" y="35.2" style="stroke: none; stroke-width: 0; stroke-dasharray: none; stroke-linecap: butt; stroke-linejoin: miter; stroke-miterlimit: 4; fill: #f7f7f7; fill-rule: ; opacity: 1;">i</tspan><tspan x="29.89" y="35.2" style="stroke: none; stroke-width: 0; stroke-dasharray: none; stroke-linecap: butt; stroke-linejoin: miter; stroke-miterlimit: 4; fill: #f7f7f7; fill-rule: ; opacity: 1;">m</tspan><tspan x="63.99" y="35.2" style="stroke: none; stroke-width: 0; stroke-dasharray: none; stroke-linecap: butt; stroke-linejoin: miter; stroke-miterlimit: 4; fill: #f7f7f7; fill-rule: ; opacity: 1;">e</tspan></text>
 </g>
</svg>